M48
;DRILL file {KiCad 4.0.7} date Thursday, May 17, 2018 'AMt' 08:01:52 AM
;FORMAT={-:-/ absolute / inch / decimal}
FMAT,2
INCH,TZ
T1C0.031
T2C0.039
T3C0.051
%
G90
G05
M72
T1
X5.3667Y-3.2938
X5.4667Y-3.2938
X5.5667Y-3.2938
X5.6667Y-3.2938
X5.7265Y-5.1938
X5.7667Y-3.2938
X5.8265Y-5.1938
X5.8667Y-3.2938
X5.9265Y-5.1938
X5.9667Y-3.2938
X6.0265Y-5.1938
X6.0667Y-3.2938
X6.1265Y-5.1938
X6.1667Y-3.2938
X6.2265Y-5.1938
X6.2667Y-3.2938
X6.3265Y-5.1938
X6.4265Y-3.2938
X6.4265Y-5.1938
X6.5265Y-3.2938
X6.6265Y-3.2938
X6.6265Y-5.1938
X6.7265Y-3.2938
X6.7265Y-5.1938
X6.8265Y-3.2938
X6.8265Y-5.1938
X6.9265Y-3.2938
X6.9265Y-5.1938
X7.0265Y-3.2938
X7.0265Y-5.1938
X7.1265Y-3.2938
X7.1265Y-5.1938
T2
X5.16Y-3.3078
X5.16Y-3.4078
X5.16Y-3.5078
X5.16Y-3.6078
X5.16Y-3.7078
X5.16Y-3.8078
X5.16Y-3.9078
X5.16Y-4.0078
X5.16Y-4.1078
X5.16Y-4.2078
X5.16Y-4.3078
X5.16Y-4.4078
X5.16Y-4.5078
X5.16Y-4.6078
X5.16Y-4.7078
X5.16Y-4.8078
X5.16Y-4.9078
X5.16Y-5.0078
X5.16Y-5.1078
X5.16Y-5.2078
X5.84Y-4.5078
X5.84Y-4.6078
X5.84Y-4.7078
X6.04Y-4.5078
X6.04Y-4.6078
X6.04Y-4.7078
X6.22Y-4.5078
X6.22Y-4.6078
X6.22Y-4.7078
X6.76Y-4.6078
X6.76Y-4.7078
T3
X6.8126Y-3.8547
X6.9386Y-4.2208
X6.9858Y-4.1145
X7.1Y-3.835
X7.14Y-4.5741
X7.14Y-4.771
X7.2535Y-4.0161
T0
M30
