G04 #@! TF.FileFunction,Soldermask,Bot*
%FSLAX46Y46*%
G04 Gerber Fmt 4.6, Leading zero omitted, Abs format (unit mm)*
G04 Created by KiCad (PCBNEW 4.0.7) date Thursday, May 17, 2018 'AMt' 08:01:50 AM*
%MOMM*%
%LPD*%
G01*
G04 APERTURE LIST*
%ADD10C,0.100000*%
%ADD11R,1.700000X1.700000*%
%ADD12O,1.700000X1.700000*%
%ADD13R,2.500000X2.500000*%
%ADD14C,2.500000*%
%ADD15O,1.600000X1.600000*%
%ADD16R,1.600000X1.600000*%
%ADD17O,4.000000X2.200000*%
%ADD18O,2.200000X4.000000*%
G04 APERTURE END LIST*
D10*
D11*
X131064000Y-132278564D03*
D12*
X131064000Y-129738564D03*
X131064000Y-127198564D03*
X131064000Y-124658564D03*
X131064000Y-122118564D03*
X131064000Y-119578564D03*
X131064000Y-117038564D03*
X131064000Y-114498564D03*
X131064000Y-111958564D03*
X131064000Y-109418564D03*
X131064000Y-106878564D03*
X131064000Y-104338564D03*
X131064000Y-101798564D03*
X131064000Y-99258564D03*
X131064000Y-96718564D03*
X131064000Y-94178564D03*
X131064000Y-91638564D03*
X131064000Y-89098564D03*
X131064000Y-86558564D03*
X131064000Y-84018564D03*
D13*
X181356000Y-121182564D03*
D14*
X181356000Y-116182564D03*
D11*
X148336000Y-119578564D03*
D12*
X148336000Y-117038564D03*
X148336000Y-114498564D03*
D11*
X171704000Y-117038564D03*
D12*
X171704000Y-119578564D03*
D11*
X153416000Y-119578564D03*
D12*
X153416000Y-117038564D03*
X153416000Y-114498564D03*
D11*
X157988000Y-119578564D03*
D12*
X157988000Y-117038564D03*
X157988000Y-114498564D03*
D15*
X136313100Y-83662964D03*
X138853100Y-83662964D03*
D16*
X145453100Y-131922964D03*
D15*
X175933100Y-83662964D03*
X147993100Y-131922964D03*
X173393100Y-83662964D03*
X150533100Y-131922964D03*
X170853100Y-83662964D03*
X153073100Y-131922964D03*
X168313100Y-83662964D03*
X155613100Y-131922964D03*
X165773100Y-83662964D03*
X158153100Y-131922964D03*
X163233100Y-83662964D03*
X160693100Y-131922964D03*
X159173100Y-83662964D03*
X163233100Y-131922964D03*
X156633100Y-83662964D03*
X168313100Y-131922964D03*
X154093100Y-83662964D03*
X170853100Y-131922964D03*
X151553100Y-83662964D03*
X173393100Y-131922964D03*
X149013100Y-83662964D03*
X175933100Y-131922964D03*
X146473100Y-83662964D03*
X178473100Y-131922964D03*
X143933100Y-83662964D03*
X181013100Y-131922964D03*
X141393100Y-83662964D03*
X181013100Y-83662964D03*
X178473100Y-83662964D03*
D17*
X180340000Y-97409000D03*
D18*
X173040000Y-97909000D03*
D17*
X177440000Y-104509000D03*
X176240000Y-107209000D03*
D18*
X184240000Y-102009000D03*
M02*
