G04 #@! TF.FileFunction,Copper,L1,Top,Signal*
%FSLAX46Y46*%
G04 Gerber Fmt 4.6, Leading zero omitted, Abs format (unit mm)*
G04 Created by KiCad (PCBNEW 4.0.7) date Thursday, May 17, 2018 'AMt' 08:01:50 AM*
%MOMM*%
%LPD*%
G01*
G04 APERTURE LIST*
%ADD10C,0.100000*%
%ADD11R,1.700000X1.700000*%
%ADD12O,1.700000X1.700000*%
%ADD13R,2.500000X2.500000*%
%ADD14C,2.500000*%
%ADD15O,1.600000X1.600000*%
%ADD16R,1.600000X1.600000*%
%ADD17O,4.000000X2.200000*%
%ADD18O,2.200000X4.000000*%
%ADD19C,0.250000*%
%ADD20C,0.152400*%
G04 APERTURE END LIST*
D10*
D11*
X131064000Y-132278564D03*
D12*
X131064000Y-129738564D03*
X131064000Y-127198564D03*
X131064000Y-124658564D03*
X131064000Y-122118564D03*
X131064000Y-119578564D03*
X131064000Y-117038564D03*
X131064000Y-114498564D03*
X131064000Y-111958564D03*
X131064000Y-109418564D03*
X131064000Y-106878564D03*
X131064000Y-104338564D03*
X131064000Y-101798564D03*
X131064000Y-99258564D03*
X131064000Y-96718564D03*
X131064000Y-94178564D03*
X131064000Y-91638564D03*
X131064000Y-89098564D03*
X131064000Y-86558564D03*
X131064000Y-84018564D03*
D13*
X181356000Y-121182564D03*
D14*
X181356000Y-116182564D03*
D11*
X148336000Y-119578564D03*
D12*
X148336000Y-117038564D03*
X148336000Y-114498564D03*
D11*
X171704000Y-117038564D03*
D12*
X171704000Y-119578564D03*
D11*
X153416000Y-119578564D03*
D12*
X153416000Y-117038564D03*
X153416000Y-114498564D03*
D11*
X157988000Y-119578564D03*
D12*
X157988000Y-117038564D03*
X157988000Y-114498564D03*
D15*
X136313100Y-83662964D03*
X138853100Y-83662964D03*
D16*
X145453100Y-131922964D03*
D15*
X175933100Y-83662964D03*
X147993100Y-131922964D03*
X173393100Y-83662964D03*
X150533100Y-131922964D03*
X170853100Y-83662964D03*
X153073100Y-131922964D03*
X168313100Y-83662964D03*
X155613100Y-131922964D03*
X165773100Y-83662964D03*
X158153100Y-131922964D03*
X163233100Y-83662964D03*
X160693100Y-131922964D03*
X159173100Y-83662964D03*
X163233100Y-131922964D03*
X156633100Y-83662964D03*
X168313100Y-131922964D03*
X154093100Y-83662964D03*
X170853100Y-131922964D03*
X151553100Y-83662964D03*
X173393100Y-131922964D03*
X149013100Y-83662964D03*
X175933100Y-131922964D03*
X146473100Y-83662964D03*
X178473100Y-131922964D03*
X143933100Y-83662964D03*
X181013100Y-131922964D03*
X141393100Y-83662964D03*
X181013100Y-83662964D03*
X178473100Y-83662964D03*
D17*
X180340000Y-97409000D03*
D18*
X173040000Y-97909000D03*
D17*
X177440000Y-104509000D03*
X176240000Y-107209000D03*
D18*
X184240000Y-102009000D03*
D19*
X133604000Y-114498564D02*
X148336000Y-114498564D01*
X133604000Y-96718564D02*
X133604000Y-114498564D01*
X131064000Y-96718564D02*
X133604000Y-96718564D01*
X150368000Y-121610564D02*
X150368000Y-116530564D01*
X150368000Y-116530564D02*
X148336000Y-114498564D01*
X153073100Y-124315664D02*
X150368000Y-121610564D01*
X153073100Y-131922964D02*
X153073100Y-124315664D01*
D20*
X176240000Y-93634564D02*
X176240000Y-102930062D01*
X176240000Y-102930062D02*
X174087600Y-105082462D01*
X174087600Y-105082462D02*
X174087600Y-105956600D01*
X174087600Y-105956600D02*
X175340000Y-107209000D01*
X175340000Y-107209000D02*
X176240000Y-107209000D01*
X175211390Y-106180390D02*
X176240000Y-107209000D01*
D19*
X176240000Y-93634564D02*
X174244000Y-91638564D01*
X174244000Y-91638564D02*
X131064000Y-91638564D01*
D20*
X180340000Y-90114564D02*
X180340000Y-97409000D01*
D19*
X180340000Y-90114564D02*
X179324000Y-89098564D01*
X179324000Y-89098564D02*
X131064000Y-89098564D01*
X160020000Y-117038564D02*
X160693100Y-117711664D01*
X160693100Y-117711664D02*
X160693100Y-131922964D01*
X157988000Y-117038564D02*
X160020000Y-117038564D01*
X151384000Y-121102564D02*
X151384000Y-116530564D01*
X151384000Y-116530564D02*
X153416000Y-114498564D01*
X152400000Y-122118564D02*
X151384000Y-121102564D01*
X152908000Y-122118564D02*
X152400000Y-122118564D01*
X155613100Y-123807664D02*
X154597100Y-123807664D01*
X154597100Y-123807664D02*
X152908000Y-122118564D01*
X155613100Y-131922964D02*
X155613100Y-123807664D01*
X155956000Y-121610564D02*
X155956000Y-116530564D01*
X155956000Y-116530564D02*
X157988000Y-114498564D01*
X157353101Y-123007665D02*
X155956000Y-121610564D01*
X158153100Y-131922964D02*
X157353101Y-131122965D01*
X157353101Y-131122965D02*
X157353101Y-123007665D01*
M02*
